{
  "accessors": [
    {
      "bufferView": 2,
      "componentType": 5126,
      "count": 18714,
      "max": [
        407.2959899902344,
        380.0284729003906,
        838.1196899414063
      ],
      "min": [
        -407.2959899902344,
        -380.2519836425781,
        -0.2276235818862915
      ],
      "type": "VEC3"
    },
    {
      "bufferView": 2,
      "byteOffset": 224568,
      "componentType": 5126,
      "count": 18714,
      "max": [
        1.0,
        0.9999951124191284,
        0.999997615814209
      ],
      "min": [
        -1.0,
        -1.0,
        -1.0
      ],
      "type": "VEC3"
    },
    {
      "bufferView": 3,
      "componentType": 5126,
      "count": 18714,
      "max": [
        1.0,
        0.9999978542327881,
        0.9998098611831665,
        1.0
      ],
      "min": [
        -1.0,
        -0.9999999403953552,
        -0.9997962713241577,
        1.0
      ],
      "type": "VEC4"
    },
    {
      "bufferView": 1,
      "componentType": 5126,
      "count": 18714,
      "max": [
        0.9905045032501221,
        0.9702520370483398
      ],
      "min": [
        0.008626953698694706,
        0.00862177461385727
      ],
      "type": "VEC2"
    },
    {
      "bufferView": 1,
      "byteOffset": 149712,
      "componentType": 5126,
      "count": 18714,
      "max": [
        0.9905045032501221,
        0.9702520370483398
      ],
      "min": [
        0.008626953698694706,
        0.00862177461385727
      ],
      "type": "VEC2"
    },
    {
      "bufferView": 0,
      "componentType": 5125,
      "count": 99480,
      "type": "SCALAR"
    }
  ],
  "asset": {
    "extras": {
      "author": "3detto (https://sketchfab.com/3detto)",
      "license": "SKETCHFAB Standard (https://sketchfab.com/licenses)",
      "source": "https://sketchfab.com/3d-models/cratebarrel-verso-armchair-e52d1398fa5e4eab85f9a5962cc701d8",
      "title": "Crate&Barrel Verso Armchair"
    },
    "generator": "Sketchfab-14.64.0",
    "version": "2.0"
  },
  "bufferViews": [
    {
      "buffer": 0,
      "byteLength": 397920,
      "name": "floatBufferViews",
      "target": 34963
    },
    {
      "buffer": 0,
      "byteLength": 299424,
      "byteOffset": 397920,
      "byteStride": 8,
      "name": "floatBufferViews",
      "target": 34962
    },
    {
      "buffer": 0,
      "byteLength": 449136,
      "byteOffset": 697344,
      "byteStride": 12,
      "name": "floatBufferViews",
      "target": 34962
    },
    {
      "buffer": 0,
      "byteLength": 299424,
      "byteOffset": 1146480,
      "byteStride": 16,
      "name": "floatBufferViews",
      "target": 34962
    }
  ],
  "buffers": [
    {
      "byteLength": 1445904,
      "uri": "scene.bin"
    }
  ],
  "extensionsUsed": [
    "KHR_texture_transform"
  ],
  "images": [
    {
      "uri": "textures/fabric_orange_baseColor.jpeg"
    },
    {
      "uri": "textures/fabric_orange_metallicRoughness.png"
    },
    {
      "uri": "textures/fabric_orange_normal.png"
    }
  ],
  "materials": [
    {
      "doubleSided": true,
      "name": "fabric_orange",
      "normalTexture": {
        "index": 2
      },
      "occlusionTexture": {
        "index": 1
      },
      "pbrMetallicRoughness": {
        "baseColorTexture": {
          "extensions": {
            "KHR_texture_transform": {
              "scale": [
                3.000000000000003,
                3.000000000000003
              ]
            }
          },
          "index": 0
        },
        "metallicFactor": 0.0,
        "metallicRoughnessTexture": {
          "index": 1
        },
        "roughnessFactor": 0.8
      }
    }
  ],
  "meshes": [
    {
      "name": "verso_armchair_fabric_orange_0",
      "primitives": [
        {
          "attributes": {
            "NORMAL": 1,
            "POSITION": 0,
            "TANGENT": 2,
            "TEXCOORD_0": 3,
            "TEXCOORD_1": 4
          },
          "indices": 5,
          "material": 0,
          "mode": 4
        }
      ]
    }
  ],
  "nodes": [
    {
      "children": [
        1
      ],
      "matrix": [
        1.0,
        0.0,
        0.0,
        0.0,
        0.0,
        2.220446049250313e-16,
        -1.0,
        0.0,
        0.0,
        1.0,
        2.220446049250313e-16,
        0.0,
        0.0,
        0.0,
        0.0,
        1.0
      ],
      "name": "Sketchfab_model"
    },
    {
      "children": [
        2
      ],
      "matrix": [
        0.009999999776482582,
        0.0,
        0.0,
        0.0,
        0.0,
        0.0,
        0.009999999776482582,
        0.0,
        0.0,
        -0.009999999776482582,
        0.0,
        0.0,
        0.0,
        0.0,
        0.0,
        1.0
      ],
      "name": "0ef4eb03167c400d8b3f6ead340bb402.fbx"
    },
    {
      "children": [
        3
      ],
      "name": "RootNode"
    },
    {
      "children": [
        4
      ],
      "matrix": [
        0.10000000149011612,
        0.0,
        0.0,
        0.0,
        0.0,
        1.9470719160676402e-08,
        -0.10000000149011423,
        0.0,
        0.0,
        0.10000000149011423,
        1.9470719160676402e-08,
        0.0,
        0.0,
        0.0,
        5.312264192980365e-07,
        1.0
      ],
      "name": "verso_armchair"
    },
    {
      "mesh": 0,
      "name": "verso_armchair_fabric_orange_0"
    }
  ],
  "samplers": [
    {
      "magFilter": 9729,
      "minFilter": 9987,
      "wrapS": 10497,
      "wrapT": 10497
    }
  ],
  "scene": 0,
  "scenes": [
    {
      "name": "Sketchfab_Scene",
      "nodes": [
        0
      ]
    }
  ],
  "textures": [
    {
      "sampler": 0,
      "source": 0
    },
    {
      "sampler": 0,
      "source": 1
    },
    {
      "sampler": 0,
      "source": 2
    }
  ]
}
